<?xml version="1.0" encoding="utf-8"?>
<!-- Generator: Adobe Illustrator 22.0.1, SVG Export Plug-In . SVG Version: 6.00 Build 0)  -->
<svg version="1.1" id="Capa_1" xmlns="http://www.w3.org/2000/svg" xmlns:xlink="http://www.w3.org/1999/xlink" x="0px" y="0px"
	 viewBox="0 0 255.1 324.5" style="enable-background:new 0 0 255.1 324.5;" xml:space="preserve">
<style type="text/css">
	.st0{fill:#FEDAC6;}
	.st1{fill:#F5C4B0;}
	.st2{fill:#FECB66;}
	.st3{fill:#F5AD76;}
</style>
<path class="st0" d="M220.7,153.7h-8.5v51.1h8.5c14.1,0,25.6-11.4,25.6-25.6S234.8,153.7,220.7,153.7z"/>
<path class="st1" d="M7.7,179.3c0,14.1,11.4,25.6,25.6,25.6h8.5v-51.1h-8.5C19.1,153.7,7.7,165.2,7.7,179.3z"/>
<path class="st2" d="M220.7,153.7l10.1-51.7c3.3-19.6-10-38.2-29.6-41.5c-2-0.3-4-0.5-6-0.5l0,0c-5.1-15.3-19.4-25.5-35.4-25.6h-101
	l-17-25.5l-8.5,8.5c-23.5,23.5-23.5,61.7,0,85.2l0,0h153.4L220.7,153.7z"/>
<path class="st0" d="M220.7,153.7v48.6c0,24-6.1,47.7-17.8,68.7l0,0c-15.3,27.6-44.4,44.7-75.9,44.6l0,0
	c-31.5,0-60.6-17.1-75.9-44.6l0,0c-11.7-21-17.8-44.6-17.8-68.7v-99.7h153.4L220.7,153.7z"/>
<path class="st1" d="M67.3,102.6H33.2v99.7c0,24,6.1,47.7,17.8,68.7c8.5,15.3,21.5,27.6,37.1,35.3C58.8,221.9,67.3,102.6,67.3,102.6
	z"/>
<path class="st3" d="M17.4,45.7c-5.1,20.4,1,42,15.8,56.9h136.3C72.8,102.6,33.2,68.5,17.4,45.7z"/>
<path d="M220.7,213.4h-8.5v-17h8.5c9.4,0,17-7.6,17-17s-7.6-17-17-17h-8.5v-17h8.5c18.8,0,34.1,15.3,34.1,34.1
	S239.5,213.4,220.7,213.4z"/>
<path d="M41.8,213.4h-8.5c-18.8,0-34.1-15.3-34.1-34.1s15.3-34.1,34.1-34.1h8.5v17h-8.5c-9.4,0-17,7.6-17,17s7.6,17,17,17h8.5V213.4
	z"/>
<path d="M135.5,230.4h-25.6c-2.7,0-5.2-1.3-6.8-3.4c-1.6-2.1-2.1-4.9-1.4-7.5l17-59.6l16.4,4.7l-13.9,48.8h14.3V230.4L135.5,230.4z"
	/>
<path d="M127,324.1C127,324.1,126.9,324.1,127,324.1c-34.6,0-66.6-18.8-83.4-49c-12.3-22.2-18.9-47.4-18.9-72.8v-99.7
	c0-4.7,3.8-8.5,8.5-8.5h153.4c2.8,0,5.5,1.4,7.1,3.8l34.1,51.1c0.9,1.4,1.4,3,1.4,4.7v48.6c0,25.4-6.5,50.6-18.9,72.8
	C193.5,305.4,161.6,324.1,127,324.1z M127,307.1L127,307.1c28.4,0,54.7-15.4,68.5-40.3c10.9-19.7,16.7-42,16.7-64.5v-46l-30.1-45.2
	H41.8v91.2c0,22.5,5.8,44.8,16.7,64.5C72.3,291.7,98.5,307.1,127,307.1C126.9,307.1,127,307.1,127,307.1z"/>
<path d="M119.9,264.5h-10v-17h10c13.3,0,25.7-5.2,35.1-14.6l12,12.1C154.5,257.6,137.7,264.5,119.9,264.5z"/>
<circle cx="75.9" cy="170.8" r="17"/>
<ellipse transform="matrix(0.1602 -0.9871 0.9871 0.1602 -19.0067 319.2241)" cx="178.1" cy="170.8" rx="17" ry="17"/>
<path d="M229.1,163.7l-16.8-2.8l10.1-60.2c1.2-7.3-0.5-14.6-4.7-20.5c-4.3-6-10.6-10-17.9-11.2c-1.5-0.3-3.2-0.4-4.6-0.4l0,0
	c-3.7,0-6.9-2.3-8.1-5.8c-4-11.9-15-19.8-27.4-19.8H58.8c-2.8,0-5.5-1.4-7.1-3.8L40.4,22.3l-1.2,1.2C29.5,33.2,24.1,46.2,24.1,60
	s5.4,26.8,15.1,36.6l-12,12.1c-26.8-26.8-26.8-70.4,0-97.3l8.5-8.5c1.8-1.8,4.3-2.7,6.9-2.5c2.5,0.2,4.8,1.6,6.2,3.7l14.5,21.8h96.3
	c17.8,0,33.7,10.2,41.3,25.9c0.5,0.1,1,0.1,1.6,0.2c11.8,2,22,8.4,28.9,18.1s9.6,21.5,7.7,33.2L229.1,163.7z"/>
</svg>
